G04 PROTEUS GERBER X2 FILE*
%TF.GenerationSoftware,Labcenter,Proteus,8.13-SP0-Build31525*%
%TF.CreationDate,2026-04-10T05:04:06+00:00*%
%TF.FileFunction,Copper,L2,Bot*%
%TF.FilePolarity,Positive*%
%TF.Part,Single*%
%TF.SameCoordinates,{8bd718de-10c5-4b33-929f-c6bb57ea4890}*%
%FSLAX45Y45*%
%MOMM*%
G01*
%TA.AperFunction,Conductor*%
%ADD10C,1.143000*%
%TA.AperFunction,ComponentPad*%
%ADD11C,3.810000*%
%TA.AperFunction,WasherPad*%
%ADD12R,1.580000X1.580000*%
%TA.AperFunction,ComponentPad*%
%ADD13C,1.580000*%
%TA.AperFunction,ComponentPad*%
%ADD14C,3.048000*%
%TA.AperFunction,ComponentPad*%
%ADD15C,2.032000*%
%TA.AperFunction,ComponentPad*%
%ADD16R,2.032000X2.032000*%
%TA.AperFunction,ComponentPad*%
%ADD17C,1.778000*%
%TA.AperFunction,OtherPad,Unknown*%
%ADD18C,4.500000*%
%TD.AperFunction*%
G36*
X+973309Y+3385347D02*
X+1043984Y+3314672D01*
X+1043984Y+3051264D01*
X+1379701Y+2715547D01*
X+1379701Y+2848183D01*
X+1357003Y+2890648D01*
X+1340742Y+2944252D01*
X+1335251Y+3000000D01*
X+1340742Y+3055747D01*
X+1357003Y+3109351D01*
X+1383404Y+3158744D01*
X+1383404Y+3333252D01*
X+1549902Y+3499750D01*
X+3444354Y+3499750D01*
X+4221299Y+2722805D01*
X+4221299Y+2461299D01*
X+4619199Y+2461299D01*
X+5055690Y+2024808D01*
X+5055690Y+3081303D01*
X+5017311Y+3049806D01*
X+4946575Y+3011997D01*
X+4869822Y+2988714D01*
X+4790000Y+2980851D01*
X+4710179Y+2988713D01*
X+4633426Y+3011996D01*
X+4562690Y+3049805D01*
X+4500689Y+3100688D01*
X+4449806Y+3162689D01*
X+4411997Y+3233425D01*
X+4388714Y+3310178D01*
X+4380851Y+3390000D01*
X+4388713Y+3469821D01*
X+4411996Y+3546574D01*
X+4416869Y+3555690D01*
X+802966Y+3555690D01*
X+973309Y+3385347D01*
G37*
G36*
X-1905690Y-981303D02*
X-1829632Y-905245D01*
X-1829632Y+521616D01*
X-1519016Y+832232D01*
X-1512264Y+854491D01*
X-1487032Y+901697D01*
X-1453075Y+943074D01*
X-1411698Y+977031D01*
X-1364492Y+1002263D01*
X-1313270Y+1017801D01*
X-1260000Y+1023049D01*
X-1206731Y+1017802D01*
X-1155509Y+1002264D01*
X-1108303Y+977032D01*
X-1066926Y+943075D01*
X-1032969Y+901698D01*
X-1007737Y+854492D01*
X-992199Y+803270D01*
X-986951Y+750000D01*
X-992198Y+696731D01*
X-1007736Y+645509D01*
X-1032968Y+598303D01*
X-1066925Y+556926D01*
X-1108302Y+522969D01*
X-1146485Y+502560D01*
X-1145509Y+502264D01*
X-1124995Y+491299D01*
X-817949Y+491299D01*
X-509016Y+800232D01*
X-502264Y+822491D01*
X-477032Y+869697D01*
X-443075Y+911074D01*
X-401698Y+945031D01*
X-397366Y+947346D01*
X-471649Y+1021629D01*
X-471649Y+1492701D01*
X-914170Y+1492701D01*
X-919918Y+1434343D01*
X-939069Y+1371209D01*
X-970169Y+1313024D01*
X-1012023Y+1262024D01*
X-1063022Y+1220170D01*
X-1121207Y+1189069D01*
X-1184341Y+1169917D01*
X-1250000Y+1163451D01*
X-1315657Y+1169918D01*
X-1378791Y+1189069D01*
X-1436976Y+1220169D01*
X-1487976Y+1262023D01*
X-1529830Y+1313022D01*
X-1560931Y+1371207D01*
X-1580083Y+1434341D01*
X-1586036Y+1494788D01*
X-1849260Y+1758012D01*
X-1849260Y+3555690D01*
X-1905690Y+3555690D01*
X-1905690Y-981303D01*
G37*
G36*
X+5022421Y-60827D02*
X+4841248Y-242000D01*
X+5055690Y-456442D01*
X+5055690Y-27558D01*
X+5022421Y-60827D01*
G37*
G36*
X+4513149Y-2578099D02*
X+4513149Y-2763149D01*
X+4328099Y-2763149D01*
X+3349949Y-3741299D01*
X-1124996Y-3741299D01*
X-1145508Y-3752263D01*
X-1196730Y-3767801D01*
X-1250000Y-3773049D01*
X-1303269Y-3767802D01*
X-1354491Y-3752264D01*
X-1375005Y-3741299D01*
X-1849949Y-3741299D01*
X-1905690Y-3685558D01*
X-1905690Y-3805690D01*
X+4341729Y-3805690D01*
X+4318714Y-3729822D01*
X+4310851Y-3650000D01*
X+4318713Y-3570179D01*
X+4341996Y-3493426D01*
X+4379805Y-3422690D01*
X+4430688Y-3360689D01*
X+4492689Y-3309806D01*
X+4563425Y-3271997D01*
X+4640178Y-3248714D01*
X+4720000Y-3240851D01*
X+4799821Y-3248713D01*
X+4876574Y-3271996D01*
X+4947310Y-3309805D01*
X+5009311Y-3360688D01*
X+5055690Y-3417201D01*
X+5055690Y-2035558D01*
X+4513149Y-2578099D01*
G37*
G36*
X+258701Y+2809362D02*
X+258701Y+2848183D01*
X+236003Y+2890648D01*
X+219742Y+2944252D01*
X+214251Y+3000000D01*
X+219742Y+3055747D01*
X+236003Y+3109351D01*
X+262409Y+3158753D01*
X+297945Y+3202054D01*
X+341246Y+3237591D01*
X+390648Y+3263997D01*
X+407155Y+3269005D01*
X+361718Y+3314442D01*
X-246379Y+3314442D01*
X+258701Y+2809362D01*
G37*
G36*
X+3532687Y+2483149D02*
X+3738701Y+2483149D01*
X+3738701Y+2522907D01*
X+3244456Y+3017152D01*
X+2998684Y+3017152D01*
X+3532687Y+2483149D01*
G37*
G36*
X-1012024Y+2979977D02*
X-970170Y+2928978D01*
X-939069Y+2870793D01*
X-919917Y+2807659D01*
X-913451Y+2742000D01*
X-919918Y+2676343D01*
X-939069Y+2613209D01*
X-970169Y+2555024D01*
X-1008701Y+2508072D01*
X-1008701Y+2249299D01*
X-689072Y+2249299D01*
X-718003Y+2303425D01*
X-741286Y+2380178D01*
X-749149Y+2460000D01*
X-741287Y+2539821D01*
X-718004Y+2616574D01*
X-680195Y+2687310D01*
X-629312Y+2749311D01*
X-567311Y+2800194D01*
X-496575Y+2838003D01*
X-462709Y+2848276D01*
X-599357Y+2984924D01*
X-1018052Y+2984924D01*
X-1012024Y+2979977D01*
G37*
G36*
X+38004Y+2303426D02*
X+9073Y+2249299D01*
X+136268Y+2249299D01*
X+48277Y+2337290D01*
X+38004Y+2303426D01*
G37*
G36*
X+3743149Y+1956851D02*
X+3721299Y+1956851D01*
X+3721298Y+1288932D01*
X+2949949Y+517583D01*
X+2659300Y+517583D01*
X+2650860Y+507299D01*
X+4266072Y+507299D01*
X+4313022Y+545830D01*
X+4371207Y+576931D01*
X+4434341Y+596083D01*
X+4500000Y+602549D01*
X+4565657Y+596082D01*
X+4610498Y+582480D01*
X+4610498Y+1787504D01*
X+4419301Y+1978701D01*
X+4084105Y+1978701D01*
X+4080702Y+1976882D01*
X+4031337Y+1961907D01*
X+3980000Y+1956851D01*
X+3928662Y+1961907D01*
X+3879297Y+1976882D01*
X+3833802Y+2001200D01*
X+3793925Y+2033926D01*
X+3761199Y+2073803D01*
X+3743149Y+2107573D01*
X+3743149Y+1956851D01*
G37*
G36*
X+1025749Y+1354251D02*
X+741298Y+1354251D01*
X+741298Y+1346831D01*
X+737299Y+1150051D01*
X+731299Y+1144051D01*
X+731299Y+1099949D01*
X+738297Y+1092951D01*
X+1001703Y+1092951D01*
X+1158752Y+1250000D01*
X+1133701Y+1275051D01*
X+1133701Y+1598183D01*
X+1111003Y+1640648D01*
X+1097025Y+1686727D01*
X+1025749Y+1758003D01*
X+1025749Y+1354251D01*
G37*
G36*
X+1854160Y+507299D02*
X+2099140Y+507299D01*
X+2090700Y+517583D01*
X+1864444Y+517583D01*
X+1854160Y+507299D01*
G37*
G36*
X+1984352Y+2736003D02*
X+1930748Y+2719742D01*
X+1875000Y+2714251D01*
X+1862299Y+2715502D01*
X+1862299Y+2661084D01*
X+2204432Y+2318951D01*
X+2204432Y+1330278D01*
X+1882855Y+1008701D01*
X+1599949Y+1008701D01*
X+1201601Y+610353D01*
X+720778Y+610353D01*
X+785801Y+545330D01*
X+785801Y+285749D01*
X+789749Y+285749D01*
X+789749Y+174107D01*
X+838472Y+174107D01*
X+1664546Y+1000181D01*
X+2090700Y+1000181D01*
X+2110083Y+1023799D01*
X+2166856Y+1070391D01*
X+2231628Y+1105012D01*
X+2301910Y+1126332D01*
X+2375000Y+1133531D01*
X+2448090Y+1126332D01*
X+2518372Y+1105012D01*
X+2583143Y+1070392D01*
X+2639917Y+1023799D01*
X+2659300Y+1000181D01*
X+2750051Y+1000181D01*
X+3238702Y+1488832D01*
X+3238701Y+1956851D01*
X+3216851Y+1956851D01*
X+3216851Y+2116489D01*
X+2574639Y+2758701D01*
X+2026817Y+2758701D01*
X+1984352Y+2736003D01*
G37*
G36*
X-547376Y+79376D02*
X-618051Y+8701D01*
X-1008701Y+8701D01*
X-1008701Y-124996D01*
X-997737Y-145508D01*
X-982199Y-196730D01*
X-976951Y-250000D01*
X-982198Y-303269D01*
X-997736Y-354491D01*
X-1022968Y-401697D01*
X-1056925Y-443074D01*
X-1098302Y-477031D01*
X-1145508Y-502263D01*
X-1196730Y-517801D01*
X-1250000Y-523049D01*
X-1303269Y-517802D01*
X-1347034Y-504526D01*
X-1347034Y-679435D01*
X-1315659Y-669917D01*
X-1250000Y-663451D01*
X-1184343Y-669918D01*
X-1121209Y-689069D01*
X-1063024Y-720169D01*
X-1012024Y-762023D01*
X-970170Y-813022D01*
X-939069Y-871207D01*
X-919917Y-934341D01*
X-913451Y-1000000D01*
X-919592Y-1062344D01*
X-509016Y-651768D01*
X-502264Y-629509D01*
X-477032Y-582303D01*
X-443075Y-540926D01*
X-401698Y-506969D01*
X-354492Y-481737D01*
X-303270Y-466199D01*
X-250000Y-460951D01*
X-196731Y-466198D01*
X-145509Y-481736D01*
X-98303Y-506968D01*
X-56926Y-540925D01*
X-22969Y-582302D01*
X+2263Y-629508D01*
X+17801Y-680730D01*
X+23049Y-734000D01*
X+17802Y-787269D01*
X+2264Y-838491D01*
X-22968Y-885697D01*
X-56925Y-927074D01*
X-98302Y-961031D01*
X-145508Y-986263D01*
X-167767Y-993015D01*
X-924051Y-1749299D01*
X-1016072Y-1749299D01*
X-1063022Y-1787830D01*
X-1121207Y-1818931D01*
X-1184341Y-1838083D01*
X-1244788Y-1844036D01*
X-1258701Y-1857949D01*
X-1258701Y-2227079D01*
X-1206731Y-2232198D01*
X-1155509Y-2247736D01*
X-1134995Y-2258701D01*
X-1099949Y-2258701D01*
X-509016Y-1667768D01*
X-502264Y-1645509D01*
X-477032Y-1598303D01*
X-443075Y-1556926D01*
X-401698Y-1522969D01*
X-354492Y-1497737D01*
X-332233Y-1490985D01*
X-149949Y-1308701D01*
X-49749Y-1308701D01*
X-49749Y-1264251D01*
X+248701Y-1264251D01*
X+248701Y-1011455D01*
X+540653Y-719503D01*
X+2090700Y-719503D01*
X+2110083Y-695885D01*
X+2166856Y-649293D01*
X+2231628Y-614672D01*
X+2301910Y-593352D01*
X+2375000Y-586153D01*
X+2448090Y-593352D01*
X+2518372Y-614672D01*
X+2583143Y-649292D01*
X+2639917Y-695885D01*
X+2686509Y-752658D01*
X+2721130Y-817430D01*
X+2742450Y-887712D01*
X+2749649Y-960802D01*
X+2746654Y-991208D01*
X+3225299Y-1469853D01*
X+3225299Y-2258701D01*
X+3645895Y-2258701D01*
X+3649298Y-2256882D01*
X+3698663Y-2241907D01*
X+3750000Y-2236851D01*
X+3801338Y-2241907D01*
X+3850703Y-2256882D01*
X+3896198Y-2281200D01*
X+3936075Y-2313926D01*
X+3968801Y-2353803D01*
X+3986851Y-2387573D01*
X+3986851Y-2236851D01*
X+4171901Y-2236851D01*
X+4634004Y-1774748D01*
X+4634004Y-1058146D01*
X+4628793Y-1060931D01*
X+4565659Y-1080083D01*
X+4500000Y-1086549D01*
X+4434343Y-1080082D01*
X+4371209Y-1060931D01*
X+4313024Y-1029831D01*
X+4266072Y-991299D01*
X+3783933Y-991299D01*
X+3289290Y-496656D01*
X+3258884Y-499651D01*
X+3185794Y-492452D01*
X+3115512Y-471132D01*
X+3050741Y-436512D01*
X+2993967Y-389919D01*
X+2947375Y-333146D01*
X+2912754Y-268374D01*
X+2891434Y-198092D01*
X+2884235Y-125002D01*
X+2891434Y-51912D01*
X+2912754Y+18370D01*
X+2916138Y+24701D01*
X+1982069Y+24701D01*
X+1862772Y-94596D01*
X+1865767Y-125002D01*
X+1858568Y-198092D01*
X+1837248Y-268374D01*
X+1802628Y-333145D01*
X+1756035Y-389919D01*
X+1699262Y-436511D01*
X+1634490Y-471132D01*
X+1564208Y-492452D01*
X+1491118Y-499651D01*
X+1418028Y-492452D01*
X+1347746Y-471132D01*
X+1282975Y-436512D01*
X+1226201Y-389919D01*
X+1179609Y-333146D01*
X+1144988Y-268374D01*
X+1129510Y-217351D01*
X+1038370Y-308491D01*
X+471243Y-308491D01*
X+448501Y-285749D01*
X-289749Y-285749D01*
X-289749Y-55499D01*
X-486000Y+140752D01*
X-547376Y+79376D01*
G37*
G36*
X+3605014Y+18370D02*
X+3626334Y-51912D01*
X+3633533Y-125002D01*
X+3630538Y-155408D01*
X+3983831Y-508701D01*
X+4266072Y-508701D01*
X+4281548Y-496000D01*
X+4262024Y-479977D01*
X+4220170Y-428978D01*
X+4189069Y-370793D01*
X+4169917Y-307659D01*
X+4163451Y-242000D01*
X+4169918Y-176343D01*
X+4189069Y-113209D01*
X+4220169Y-55024D01*
X+4262023Y-4024D01*
X+4281548Y+12000D01*
X+4266072Y+24701D01*
X+3601630Y+24701D01*
X+3605014Y+18370D01*
G37*
G36*
X-1508701Y-1266810D02*
X-1508701Y-1295277D01*
X-1487977Y-1270024D01*
X-1468452Y-1254000D01*
X-1477599Y-1246493D01*
X-1488384Y-1246493D01*
X-1508701Y-1266810D01*
G37*
G36*
X+731299Y-1211353D02*
X+731299Y-1264251D01*
X+1029749Y-1264251D01*
X+1029749Y-1308701D01*
X+1383949Y-1308701D01*
X+1544689Y-1469441D01*
X+1547747Y-1469742D01*
X+1601351Y-1486003D01*
X+1619000Y-1495436D01*
X+1636648Y-1486003D01*
X+1690252Y-1469742D01*
X+1746000Y-1464251D01*
X+1801747Y-1469742D01*
X+1855351Y-1486003D01*
X+1904753Y-1512409D01*
X+1948054Y-1547945D01*
X+1983591Y-1591246D01*
X+2009997Y-1640648D01*
X+2026258Y-1694252D01*
X+2031749Y-1750000D01*
X+2026258Y-1805747D01*
X+2009997Y-1859351D01*
X+2004243Y-1870116D01*
X+2004243Y-2508227D01*
X+1862893Y-2649577D01*
X+1191671Y-2649577D01*
X+1027975Y-2813273D01*
X+1013997Y-2859351D01*
X+991299Y-2901816D01*
X+991299Y-3258701D01*
X+1150051Y-3258701D01*
X+1222025Y-3186727D01*
X+1236003Y-3140649D01*
X+1262409Y-3091247D01*
X+1297945Y-3047946D01*
X+1341246Y-3012409D01*
X+1390648Y-2986003D01*
X+1444252Y-2969742D01*
X+1500000Y-2964251D01*
X+1555747Y-2969742D01*
X+1609351Y-2986003D01*
X+1627000Y-2995436D01*
X+1644648Y-2986003D01*
X+1698252Y-2969742D01*
X+1754000Y-2964251D01*
X+1809747Y-2969742D01*
X+1863351Y-2986003D01*
X+1905816Y-3008701D01*
X+2134051Y-3008701D01*
X+2742701Y-2400051D01*
X+2742701Y-1669751D01*
X+2405406Y-1332456D01*
X+2375000Y-1335451D01*
X+2301910Y-1328252D01*
X+2231628Y-1306932D01*
X+2166857Y-1272312D01*
X+2110083Y-1225719D01*
X+2090700Y-1202101D01*
X+740551Y-1202101D01*
X+731299Y-1211353D01*
G37*
G36*
X+1029749Y-1826899D02*
X+1065349Y-1791299D01*
X+1029749Y-1791299D01*
X+1029749Y-1826899D01*
G37*
G36*
X+1504639Y-2034504D02*
X+1372165Y-2166979D01*
X+1508701Y-2166979D01*
X+1508701Y-2034104D01*
X+1504639Y-2034504D01*
G37*
G36*
X-829376Y-2670624D02*
X-900051Y-2741299D01*
X-1018701Y-2741299D01*
X-1018701Y-2856287D01*
X-997737Y-2895508D01*
X-982199Y-2946730D01*
X-976951Y-3000000D01*
X-977808Y-3008701D01*
X-592688Y-3008701D01*
X-627310Y-2990195D01*
X-689311Y-2939312D01*
X-740194Y-2877311D01*
X-778003Y-2806575D01*
X-801286Y-2729822D01*
X-809113Y-2650361D01*
X-829376Y-2670624D01*
G37*
G36*
X+2264Y-1854491D02*
X-22968Y-1901697D01*
X-56925Y-1943074D01*
X-98302Y-1977031D01*
X-145508Y-2002263D01*
X-167767Y-2009015D01*
X-399639Y-2240887D01*
X-320179Y-2248713D01*
X-243426Y-2271996D01*
X-172690Y-2309805D01*
X-110689Y-2360688D01*
X-59806Y-2422689D01*
X-21997Y-2493425D01*
X+1286Y-2570178D01*
X+9149Y-2650000D01*
X+1287Y-2729821D01*
X-21996Y-2806574D01*
X-59805Y-2877310D01*
X-110688Y-2939311D01*
X-172689Y-2990194D01*
X-207313Y-3008701D01*
X-103949Y-3008701D01*
X+218025Y-2686727D01*
X+232003Y-2640649D01*
X+258409Y-2591247D01*
X+293945Y-2547946D01*
X+337246Y-2512409D01*
X+352267Y-2504380D01*
X+1020899Y-1835749D01*
X+7949Y-1835749D01*
X+2264Y-1854491D01*
G37*
G36*
X+328547Y-3258701D02*
X+508701Y-3258701D01*
X+508701Y-3078547D01*
X+328547Y-3258701D01*
G37*
G36*
X+2566547Y-3258701D02*
X+3150051Y-3258701D01*
X+3661832Y-2746920D01*
X+3649297Y-2743118D01*
X+3645894Y-2741299D01*
X+3083949Y-2741299D01*
X+2566547Y-3258701D01*
G37*
D10*
X+754000Y+3000000D02*
X+1629000Y+2125000D01*
X+1629000Y+1750000D01*
X+4500000Y+266000D02*
X+1882120Y+266000D01*
X+1491118Y-125002D01*
X+4500000Y-750000D02*
X+3883882Y-750000D01*
X+3258884Y-125002D01*
X-1250000Y-250000D02*
X-1250000Y+250000D01*
X-1588333Y-1005194D02*
X-1402400Y-1005194D01*
X-1250000Y-1000000D01*
X-1260000Y+750000D02*
X-1588333Y+421667D01*
X-1588333Y-1005194D01*
X-1402400Y-1005194D02*
X-1255194Y-1005194D01*
X-1250000Y-1000000D01*
X-1250000Y-1508000D02*
X-1024000Y-1508000D01*
X-250000Y-734000D01*
X+1750000Y-2408278D02*
X+1750000Y-1754000D01*
X+1746000Y-1750000D01*
X+750000Y-2750000D02*
X+1091722Y-2408278D01*
X+1750000Y-2408278D01*
X+1762944Y-2408278D01*
X+1762944Y-1766944D01*
X+1750000Y-1754000D01*
X-1260000Y-2500000D02*
X-1260000Y-2990000D01*
X-1250000Y-3000000D01*
X-250000Y+718000D02*
X-718000Y+250000D01*
X-1250000Y+250000D01*
X+1443895Y-1754000D02*
X+1488000Y-1754000D01*
X+1492000Y-1750000D01*
X+1621000Y+3000000D02*
X+1621000Y+2561135D01*
X+1963133Y+2219002D01*
X+1963133Y+1430227D01*
X+1782906Y+1250000D01*
X+1500000Y+1250000D01*
X-4000Y+0D02*
X-250000Y+246000D01*
X-250000Y+718000D01*
X-1250000Y+1500000D02*
X-1016000Y+1734000D01*
X-250000Y+1734000D01*
X-1250000Y-3500000D02*
X-1750000Y-3500000D01*
X-1750000Y-1166861D01*
X-1588333Y-1005194D01*
X-1250000Y-1508000D02*
X-1500000Y-1758000D01*
X-1500000Y-3250000D01*
X-4000Y-3250000D01*
X+496000Y-2750000D01*
X+250000Y+0D02*
X+250000Y+250000D01*
X+0Y+500000D01*
X+0Y+891228D01*
X-230350Y+1121578D01*
X-230350Y+1714350D01*
X-250000Y+1734000D01*
X-1250000Y+2008000D02*
X-1250000Y+2742000D01*
X+750000Y-2750000D02*
X+750000Y-3500000D01*
X+1250000Y-3500000D01*
X-1250000Y-3500000D02*
X+750000Y-3500000D01*
X+2984000Y-2500000D02*
X+2234000Y-3250000D01*
X+1754000Y-3250000D01*
X+1375000Y+1750000D02*
X+1375000Y+1375000D01*
X+1500000Y+1250000D01*
X-1250000Y+1500000D02*
X-1607962Y+1857962D01*
X-1607962Y+3555740D01*
X+461668Y+3555740D01*
X+802685Y+3214723D01*
X+802685Y+3048685D01*
X+754000Y+3000000D01*
X+500000Y+3000000D02*
X+500000Y+2625000D01*
X+1375000Y+1750000D01*
X+232000Y+1640000D02*
X+232000Y+757883D01*
X+544502Y+445381D01*
X+544502Y+50502D01*
X+494000Y+0D01*
X+504000Y+0D01*
X+490000Y+1620091D02*
X+500000Y+1610091D01*
X+500000Y+1351600D01*
X+496000Y+1250000D01*
X+490000Y+1610091D02*
X+490000Y+1620091D01*
X+490000Y+1636000D01*
X+1500000Y+1250000D02*
X+1101652Y+851652D01*
X+638348Y+851652D01*
X+490000Y+1000000D01*
X+490000Y+1610091D01*
X+490000Y+1636000D02*
X+486000Y+1640000D01*
X-260000Y-1760000D02*
X-260000Y-1750000D01*
X-250000Y-1750000D01*
X-260000Y-1760000D01*
X-1000000Y-2500000D01*
X-1260000Y-2500000D01*
X+496000Y-2750000D02*
X+496000Y-2701895D01*
X+1195948Y-2001948D01*
X+1443895Y-1754000D01*
X+744000Y-1550000D02*
X+1284000Y-1550000D01*
X+1390400Y-1656400D01*
X+1492000Y-1750000D01*
X+236000Y-1550000D02*
X-50000Y-1550000D01*
X-161100Y-1661100D01*
X-250000Y-1750000D01*
X+486000Y+1640000D02*
X+486000Y+1882059D01*
X+454886Y+1913173D01*
X+360059Y+2008000D01*
X-1250000Y+2008000D01*
X+740000Y+1640000D02*
X+740000Y+1986815D01*
X-499408Y+3226223D01*
X-1216223Y+3226223D01*
X-1280000Y+3290000D01*
X-1250000Y+3250000D01*
X+2350000Y+758882D02*
X+1764495Y+758882D01*
X+938421Y-67192D01*
X+571192Y-67192D01*
X+504000Y+0D01*
X+4500000Y-242000D02*
X+4875303Y-617303D01*
X+4875303Y-655685D01*
X+4875303Y-1874697D01*
X+4250000Y-2500000D01*
X+3750000Y-2500000D02*
X+3019528Y-2500000D01*
X+2984000Y-2464472D01*
X+2984000Y-1569802D01*
X+2375000Y-960802D01*
X+2340000Y-960802D01*
X+2375000Y-960802D01*
X+2984000Y-2500000D02*
X+2984000Y-2464472D01*
X+2375000Y-960802D02*
X+2340000Y-960802D01*
X+640602Y-960802D01*
X+490000Y-1111404D01*
X+490000Y-1550000D01*
X+4250000Y-2500000D02*
X+3250000Y-3500000D01*
X+1250000Y-3500000D01*
X+1500000Y-3250000D01*
X+3980000Y+2220000D02*
X+3980000Y+2622856D01*
X+3344405Y+3258451D01*
X+1649851Y+3258451D01*
X+1624703Y+3233303D01*
X+1624703Y+3003703D01*
X+1621000Y+3000000D01*
X+4500000Y-242000D02*
X+4851797Y+109797D01*
X+4851797Y+1887453D01*
X+4519250Y+2220000D01*
X+3980000Y+2220000D01*
X+3480000Y+2220000D02*
X+3480000Y+1388882D01*
X+2850000Y+758882D01*
X+2375000Y+758882D01*
X+2350000Y+758882D01*
X+3480000Y+2220000D02*
X+3454588Y+2220000D01*
X+2674588Y+3000000D01*
X+1875000Y+3000000D01*
X+973309Y+3385347D02*
X+1043984Y+3314672D01*
X+1043984Y+3051264D01*
X+1379701Y+2715547D01*
X+1379701Y+2848183D01*
X+1357003Y+2890648D01*
X+1340742Y+2944252D01*
X+1335251Y+3000000D01*
X+1340742Y+3055747D01*
X+1357003Y+3109351D01*
X+1383404Y+3158744D01*
X+1383404Y+3333252D01*
X+1549902Y+3499750D01*
X+3444354Y+3499750D01*
X+4221299Y+2722805D01*
X+4221299Y+2461299D01*
X+4619199Y+2461299D01*
X+5055690Y+2024808D01*
X+5055690Y+3081303D01*
X+5017311Y+3049806D01*
X+4946575Y+3011997D01*
X+4869822Y+2988714D01*
X+4790000Y+2980851D01*
X+4710179Y+2988713D01*
X+4633426Y+3011996D01*
X+4562690Y+3049805D01*
X+4500689Y+3100688D01*
X+4449806Y+3162689D01*
X+4411997Y+3233425D01*
X+4388714Y+3310178D01*
X+4380851Y+3390000D01*
X+4388713Y+3469821D01*
X+4411996Y+3546574D01*
X+4416869Y+3555690D01*
X+802966Y+3555690D01*
X+973309Y+3385347D01*
X-1905690Y-981303D02*
X-1829632Y-905245D01*
X-1829632Y+521616D01*
X-1519016Y+832232D01*
X-1512264Y+854491D01*
X-1487032Y+901697D01*
X-1453075Y+943074D01*
X-1411698Y+977031D01*
X-1364492Y+1002263D01*
X-1313270Y+1017801D01*
X-1260000Y+1023049D01*
X-1206731Y+1017802D01*
X-1155509Y+1002264D01*
X-1108303Y+977032D01*
X-1066926Y+943075D01*
X-1032969Y+901698D01*
X-1007737Y+854492D01*
X-992199Y+803270D01*
X-986951Y+750000D01*
X-992198Y+696731D01*
X-1007736Y+645509D01*
X-1032968Y+598303D01*
X-1066925Y+556926D01*
X-1108302Y+522969D01*
X-1146485Y+502560D01*
X-1145509Y+502264D01*
X-1124995Y+491299D01*
X-817949Y+491299D01*
X-509016Y+800232D01*
X-502264Y+822491D01*
X-477032Y+869697D01*
X-443075Y+911074D01*
X-401698Y+945031D01*
X-397366Y+947346D01*
X-471649Y+1021629D01*
X-471649Y+1492701D01*
X-914170Y+1492701D01*
X-919918Y+1434343D01*
X-939069Y+1371209D01*
X-970169Y+1313024D01*
X-1012023Y+1262024D01*
X-1063022Y+1220170D01*
X-1121207Y+1189069D01*
X-1184341Y+1169917D01*
X-1250000Y+1163451D01*
X-1315657Y+1169918D01*
X-1378791Y+1189069D01*
X-1436976Y+1220169D01*
X-1487976Y+1262023D01*
X-1529830Y+1313022D01*
X-1560931Y+1371207D01*
X-1580083Y+1434341D01*
X-1586036Y+1494788D01*
X-1849260Y+1758012D01*
X-1849260Y+3555690D01*
X-1905690Y+3555690D01*
X-1905690Y-981303D01*
X+5022421Y-60827D02*
X+4841248Y-242000D01*
X+5055690Y-456442D01*
X+5055690Y-27558D01*
X+5022421Y-60827D01*
X+4513149Y-2578099D02*
X+4513149Y-2763149D01*
X+4328099Y-2763149D01*
X+3349949Y-3741299D01*
X-1124996Y-3741299D01*
X-1145508Y-3752263D01*
X-1196730Y-3767801D01*
X-1250000Y-3773049D01*
X-1303269Y-3767802D01*
X-1354491Y-3752264D01*
X-1375005Y-3741299D01*
X-1849949Y-3741299D01*
X-1905690Y-3685558D01*
X-1905690Y-3805690D01*
X+4341729Y-3805690D01*
X+4318714Y-3729822D01*
X+4310851Y-3650000D01*
X+4318713Y-3570179D01*
X+4341996Y-3493426D01*
X+4379805Y-3422690D01*
X+4430688Y-3360689D01*
X+4492689Y-3309806D01*
X+4563425Y-3271997D01*
X+4640178Y-3248714D01*
X+4720000Y-3240851D01*
X+4799821Y-3248713D01*
X+4876574Y-3271996D01*
X+4947310Y-3309805D01*
X+5009311Y-3360688D01*
X+5055690Y-3417201D01*
X+5055690Y-2035558D01*
X+4513149Y-2578099D01*
X+258701Y+2809362D02*
X+258701Y+2848183D01*
X+236003Y+2890648D01*
X+219742Y+2944252D01*
X+214251Y+3000000D01*
X+219742Y+3055747D01*
X+236003Y+3109351D01*
X+262409Y+3158753D01*
X+297945Y+3202054D01*
X+341246Y+3237591D01*
X+390648Y+3263997D01*
X+407155Y+3269005D01*
X+361718Y+3314442D01*
X-246379Y+3314442D01*
X+258701Y+2809362D01*
X+3532687Y+2483149D02*
X+3738701Y+2483149D01*
X+3738701Y+2522907D01*
X+3244456Y+3017152D01*
X+2998684Y+3017152D01*
X+3532687Y+2483149D01*
X-1012024Y+2979977D02*
X-970170Y+2928978D01*
X-939069Y+2870793D01*
X-919917Y+2807659D01*
X-913451Y+2742000D01*
X-919918Y+2676343D01*
X-939069Y+2613209D01*
X-970169Y+2555024D01*
X-1008701Y+2508072D01*
X-1008701Y+2249299D01*
X-689072Y+2249299D01*
X-718003Y+2303425D01*
X-741286Y+2380178D01*
X-749149Y+2460000D01*
X-741287Y+2539821D01*
X-718004Y+2616574D01*
X-680195Y+2687310D01*
X-629312Y+2749311D01*
X-567311Y+2800194D01*
X-496575Y+2838003D01*
X-462709Y+2848276D01*
X-599357Y+2984924D01*
X-1018052Y+2984924D01*
X-1012024Y+2979977D01*
X+38004Y+2303426D02*
X+9073Y+2249299D01*
X+136268Y+2249299D01*
X+48277Y+2337290D01*
X+38004Y+2303426D01*
X+3743149Y+1956851D02*
X+3721299Y+1956851D01*
X+3721298Y+1288932D01*
X+2949949Y+517583D01*
X+2659300Y+517583D01*
X+2650860Y+507299D01*
X+4266072Y+507299D01*
X+4313022Y+545830D01*
X+4371207Y+576931D01*
X+4434341Y+596083D01*
X+4500000Y+602549D01*
X+4565657Y+596082D01*
X+4610498Y+582480D01*
X+4610498Y+1787504D01*
X+4419301Y+1978701D01*
X+4084105Y+1978701D01*
X+4080702Y+1976882D01*
X+4031337Y+1961907D01*
X+3980000Y+1956851D01*
X+3928662Y+1961907D01*
X+3879297Y+1976882D01*
X+3833802Y+2001200D01*
X+3793925Y+2033926D01*
X+3761199Y+2073803D01*
X+3743149Y+2107573D01*
X+3743149Y+1956851D01*
X+1025749Y+1354251D02*
X+741298Y+1354251D01*
X+741298Y+1346831D01*
X+737299Y+1150051D01*
X+731299Y+1144051D01*
X+731299Y+1099949D01*
X+738297Y+1092951D01*
X+1001703Y+1092951D01*
X+1158752Y+1250000D01*
X+1133701Y+1275051D01*
X+1133701Y+1598183D01*
X+1111003Y+1640648D01*
X+1097025Y+1686727D01*
X+1025749Y+1758003D01*
X+1025749Y+1354251D01*
X+1854160Y+507299D02*
X+2099140Y+507299D01*
X+2090700Y+517583D01*
X+1864444Y+517583D01*
X+1854160Y+507299D01*
X+1984352Y+2736003D02*
X+1930748Y+2719742D01*
X+1875000Y+2714251D01*
X+1862299Y+2715502D01*
X+1862299Y+2661084D01*
X+2204432Y+2318951D01*
X+2204432Y+1330278D01*
X+1882855Y+1008701D01*
X+1599949Y+1008701D01*
X+1201601Y+610353D01*
X+720778Y+610353D01*
X+785801Y+545330D01*
X+785801Y+285749D01*
X+789749Y+285749D01*
X+789749Y+174107D01*
X+838472Y+174107D01*
X+1664546Y+1000181D01*
X+2090700Y+1000181D01*
X+2110083Y+1023799D01*
X+2166856Y+1070391D01*
X+2231628Y+1105012D01*
X+2301910Y+1126332D01*
X+2375000Y+1133531D01*
X+2448090Y+1126332D01*
X+2518372Y+1105012D01*
X+2583143Y+1070392D01*
X+2639917Y+1023799D01*
X+2659300Y+1000181D01*
X+2750051Y+1000181D01*
X+3238702Y+1488832D01*
X+3238701Y+1956851D01*
X+3216851Y+1956851D01*
X+3216851Y+2116489D01*
X+2574639Y+2758701D01*
X+2026817Y+2758701D01*
X+1984352Y+2736003D01*
X-547376Y+79376D02*
X-618051Y+8701D01*
X-1008701Y+8701D01*
X-1008701Y-124996D01*
X-997737Y-145508D01*
X-982199Y-196730D01*
X-976951Y-250000D01*
X-982198Y-303269D01*
X-997736Y-354491D01*
X-1022968Y-401697D01*
X-1056925Y-443074D01*
X-1098302Y-477031D01*
X-1145508Y-502263D01*
X-1196730Y-517801D01*
X-1250000Y-523049D01*
X-1303269Y-517802D01*
X-1347034Y-504526D01*
X-1347034Y-679435D01*
X-1315659Y-669917D01*
X-1250000Y-663451D01*
X-1184343Y-669918D01*
X-1121209Y-689069D01*
X-1063024Y-720169D01*
X-1012024Y-762023D01*
X-970170Y-813022D01*
X-939069Y-871207D01*
X-919917Y-934341D01*
X-913451Y-1000000D01*
X-919592Y-1062344D01*
X-509016Y-651768D01*
X-502264Y-629509D01*
X-477032Y-582303D01*
X-443075Y-540926D01*
X-401698Y-506969D01*
X-354492Y-481737D01*
X-303270Y-466199D01*
X-250000Y-460951D01*
X-196731Y-466198D01*
X-145509Y-481736D01*
X-98303Y-506968D01*
X-56926Y-540925D01*
X-22969Y-582302D01*
X+2263Y-629508D01*
X+17801Y-680730D01*
X+23049Y-734000D01*
X+17802Y-787269D01*
X+2264Y-838491D01*
X-22968Y-885697D01*
X-56925Y-927074D01*
X-98302Y-961031D01*
X-145508Y-986263D01*
X-167767Y-993015D01*
X-924051Y-1749299D01*
X-1016072Y-1749299D01*
X-1063022Y-1787830D01*
X-1121207Y-1818931D01*
X-1184341Y-1838083D01*
X-1244788Y-1844036D01*
X-1258701Y-1857949D01*
X-1258701Y-2227079D01*
X-1206731Y-2232198D01*
X-1155509Y-2247736D01*
X-1134995Y-2258701D01*
X-1099949Y-2258701D01*
X-509016Y-1667768D01*
X-502264Y-1645509D01*
X-477032Y-1598303D01*
X-443075Y-1556926D01*
X-401698Y-1522969D01*
X-354492Y-1497737D01*
X-332233Y-1490985D01*
X-149949Y-1308701D01*
X-49749Y-1308701D01*
X-49749Y-1264251D01*
X+248701Y-1264251D01*
X+248701Y-1011455D01*
X+540653Y-719503D01*
X+2090700Y-719503D01*
X+2110083Y-695885D01*
X+2166856Y-649293D01*
X+2231628Y-614672D01*
X+2301910Y-593352D01*
X+2375000Y-586153D01*
X+2448090Y-593352D01*
X+2518372Y-614672D01*
X+2583143Y-649292D01*
X+2639917Y-695885D01*
X+2686509Y-752658D01*
X+2721130Y-817430D01*
X+2742450Y-887712D01*
X+2749649Y-960802D01*
X+2746654Y-991208D01*
X+3225299Y-1469853D01*
X+3225299Y-2258701D01*
X+3645895Y-2258701D01*
X+3649298Y-2256882D01*
X+3698663Y-2241907D01*
X+3750000Y-2236851D01*
X+3801338Y-2241907D01*
X+3850703Y-2256882D01*
X+3896198Y-2281200D01*
X+3936075Y-2313926D01*
X+3968801Y-2353803D01*
X+3986851Y-2387573D01*
X+3986851Y-2236851D01*
X+4171901Y-2236851D01*
X+4634004Y-1774748D01*
X+4634004Y-1058146D01*
X+4628793Y-1060931D01*
X+4565659Y-1080083D01*
X+4500000Y-1086549D01*
X+4434343Y-1080082D01*
X+4371209Y-1060931D01*
X+4313024Y-1029831D01*
X+4266072Y-991299D01*
X+3783933Y-991299D01*
X+3289290Y-496656D01*
X+3258884Y-499651D01*
X+3185794Y-492452D01*
X+3115512Y-471132D01*
X+3050741Y-436512D01*
X+2993967Y-389919D01*
X+2947375Y-333146D01*
X+2912754Y-268374D01*
X+2891434Y-198092D01*
X+2884235Y-125002D01*
X+2891434Y-51912D01*
X+2912754Y+18370D01*
X+2916138Y+24701D01*
X+1982069Y+24701D01*
X+1862772Y-94596D01*
X+1865767Y-125002D01*
X+1858568Y-198092D01*
X+1837248Y-268374D01*
X+1802628Y-333145D01*
X+1756035Y-389919D01*
X+1699262Y-436511D01*
X+1634490Y-471132D01*
X+1564208Y-492452D01*
X+1491118Y-499651D01*
X+1418028Y-492452D01*
X+1347746Y-471132D01*
X+1282975Y-436512D01*
X+1226201Y-389919D01*
X+1179609Y-333146D01*
X+1144988Y-268374D01*
X+1129510Y-217351D01*
X+1038370Y-308491D01*
X+471243Y-308491D01*
X+448501Y-285749D01*
X-289749Y-285749D01*
X-289749Y-55499D01*
X-486000Y+140752D01*
X-547376Y+79376D01*
X+3605014Y+18370D02*
X+3626334Y-51912D01*
X+3633533Y-125002D01*
X+3630538Y-155408D01*
X+3983831Y-508701D01*
X+4266072Y-508701D01*
X+4281548Y-496000D01*
X+4262024Y-479977D01*
X+4220170Y-428978D01*
X+4189069Y-370793D01*
X+4169917Y-307659D01*
X+4163451Y-242000D01*
X+4169918Y-176343D01*
X+4189069Y-113209D01*
X+4220169Y-55024D01*
X+4262023Y-4024D01*
X+4281548Y+12000D01*
X+4266072Y+24701D01*
X+3601630Y+24701D01*
X+3605014Y+18370D01*
X-1508701Y-1266810D02*
X-1508701Y-1295277D01*
X-1487977Y-1270024D01*
X-1468452Y-1254000D01*
X-1477599Y-1246493D01*
X-1488384Y-1246493D01*
X-1508701Y-1266810D01*
X+731299Y-1211353D02*
X+731299Y-1264251D01*
X+1029749Y-1264251D01*
X+1029749Y-1308701D01*
X+1383949Y-1308701D01*
X+1544689Y-1469441D01*
X+1547747Y-1469742D01*
X+1601351Y-1486003D01*
X+1619000Y-1495436D01*
X+1636648Y-1486003D01*
X+1690252Y-1469742D01*
X+1746000Y-1464251D01*
X+1801747Y-1469742D01*
X+1855351Y-1486003D01*
X+1904753Y-1512409D01*
X+1948054Y-1547945D01*
X+1983591Y-1591246D01*
X+2009997Y-1640648D01*
X+2026258Y-1694252D01*
X+2031749Y-1750000D01*
X+2026258Y-1805747D01*
X+2009997Y-1859351D01*
X+2004243Y-1870116D01*
X+2004243Y-2508227D01*
X+1862893Y-2649577D01*
X+1191671Y-2649577D01*
X+1027975Y-2813273D01*
X+1013997Y-2859351D01*
X+991299Y-2901816D01*
X+991299Y-3258701D01*
X+1150051Y-3258701D01*
X+1222025Y-3186727D01*
X+1236003Y-3140649D01*
X+1262409Y-3091247D01*
X+1297945Y-3047946D01*
X+1341246Y-3012409D01*
X+1390648Y-2986003D01*
X+1444252Y-2969742D01*
X+1500000Y-2964251D01*
X+1555747Y-2969742D01*
X+1609351Y-2986003D01*
X+1627000Y-2995436D01*
X+1644648Y-2986003D01*
X+1698252Y-2969742D01*
X+1754000Y-2964251D01*
X+1809747Y-2969742D01*
X+1863351Y-2986003D01*
X+1905816Y-3008701D01*
X+2134051Y-3008701D01*
X+2742701Y-2400051D01*
X+2742701Y-1669751D01*
X+2405406Y-1332456D01*
X+2375000Y-1335451D01*
X+2301910Y-1328252D01*
X+2231628Y-1306932D01*
X+2166857Y-1272312D01*
X+2110083Y-1225719D01*
X+2090700Y-1202101D01*
X+740551Y-1202101D01*
X+731299Y-1211353D01*
X+1029749Y-1826899D02*
X+1065349Y-1791299D01*
X+1029749Y-1791299D01*
X+1029749Y-1826899D01*
X+1504639Y-2034504D02*
X+1372165Y-2166979D01*
X+1508701Y-2166979D01*
X+1508701Y-2034104D01*
X+1504639Y-2034504D01*
X-829376Y-2670624D02*
X-900051Y-2741299D01*
X-1018701Y-2741299D01*
X-1018701Y-2856287D01*
X-997737Y-2895508D01*
X-982199Y-2946730D01*
X-976951Y-3000000D01*
X-977808Y-3008701D01*
X-592688Y-3008701D01*
X-627310Y-2990195D01*
X-689311Y-2939312D01*
X-740194Y-2877311D01*
X-778003Y-2806575D01*
X-801286Y-2729822D01*
X-809113Y-2650361D01*
X-829376Y-2670624D01*
X+2264Y-1854491D02*
X-22968Y-1901697D01*
X-56925Y-1943074D01*
X-98302Y-1977031D01*
X-145508Y-2002263D01*
X-167767Y-2009015D01*
X-399639Y-2240887D01*
X-320179Y-2248713D01*
X-243426Y-2271996D01*
X-172690Y-2309805D01*
X-110689Y-2360688D01*
X-59806Y-2422689D01*
X-21997Y-2493425D01*
X+1286Y-2570178D01*
X+9149Y-2650000D01*
X+1287Y-2729821D01*
X-21996Y-2806574D01*
X-59805Y-2877310D01*
X-110688Y-2939311D01*
X-172689Y-2990194D01*
X-207313Y-3008701D01*
X-103949Y-3008701D01*
X+218025Y-2686727D01*
X+232003Y-2640649D01*
X+258409Y-2591247D01*
X+293945Y-2547946D01*
X+337246Y-2512409D01*
X+352267Y-2504380D01*
X+1020899Y-1835749D01*
X+7949Y-1835749D01*
X+2264Y-1854491D01*
X+328547Y-3258701D02*
X+508701Y-3258701D01*
X+508701Y-3078547D01*
X+328547Y-3258701D01*
X+2566547Y-3258701D02*
X+3150051Y-3258701D01*
X+3661832Y-2746920D01*
X+3649297Y-2743118D01*
X+3645894Y-2741299D01*
X+3083949Y-2741299D01*
X+2566547Y-3258701D01*
D11*
X+2375000Y+758882D03*
X+2375000Y-960802D03*
X+3258884Y-125002D03*
X+1491118Y-125002D03*
D12*
X+3480000Y+2220000D03*
D13*
X+3980000Y+2220000D03*
D12*
X+4250000Y-2500000D03*
D13*
X+3750000Y-2500000D03*
D14*
X+4500000Y-750000D03*
X+4500000Y-242000D03*
X+4500000Y+266000D03*
D15*
X+1875000Y+3000000D03*
X+1621000Y+3000000D03*
X+754000Y+3000000D03*
X+500000Y+3000000D03*
X+1629000Y+1750000D03*
X+1375000Y+1750000D03*
X+1500000Y-3250000D03*
X+1754000Y-3250000D03*
X+1746000Y-1750000D03*
X+1492000Y-1750000D03*
X+750000Y-2750000D03*
X+496000Y-2750000D03*
D16*
X+232000Y+1640000D03*
X+486000Y+1640000D03*
X+740000Y+1640000D03*
X-4000Y+0D03*
X+250000Y+0D03*
X+504000Y+0D03*
X+236000Y-1550000D03*
X+490000Y-1550000D03*
X+744000Y-1550000D03*
D17*
X-250000Y+1734000D03*
X-250000Y+718000D03*
X-250000Y-1750000D03*
X-250000Y-734000D03*
D14*
X-1250000Y+1500000D03*
X-1250000Y+2008000D03*
D17*
X-1260000Y+750000D03*
X-1250000Y-250000D03*
X-1250000Y+250000D03*
D14*
X-1250000Y-1000000D03*
X-1250000Y-1508000D03*
D17*
X-1260000Y-2500000D03*
X-1250000Y-3500000D03*
X-1250000Y-3000000D03*
D14*
X-1250000Y+3250000D03*
X-1250000Y+2742000D03*
D18*
X+4790000Y+3390000D03*
X+4720000Y-3650000D03*
X-400000Y-2650000D03*
X-340000Y+2460000D03*
M02*
