G04 Created by reaConverter (www.reaconverter.com)*
%FSLAX44Y44*%
%MOIN*%
%ADD10C,0.001*%
%LNEXPORT*%
D02*
D10*
%LPD*%
G36*
X7483Y3767D02*
Y33D01*
X3743Y23D01*
X0Y17D01*
X3760Y7D01*
X7517Y0D01*
Y3750D01*
Y4503D01*
Y5207D01*
X7513Y5843D01*
Y6400D01*
X7510Y6857D01*
X7507Y7203D01*
X7503Y7423D01*
X7500Y7500D01*
X7497Y7423D01*
X7493Y7207D01*
X7490Y6860D01*
X7487Y6403D01*
Y5850D01*
X7483Y5217D01*
Y4517D01*
Y3767D01*
G37*
%LPD*%
G36*
X170Y7310D02*
X167Y7307D01*
X163Y7300D01*
X160Y7290D01*
X157Y7283D01*
X153Y7273D01*
Y7263D01*
X150Y7253D01*
Y7243D01*
Y7200D01*
X200D01*
X250D01*
Y7247D01*
Y7257D01*
X247Y7267D01*
Y7277D01*
X240Y7287D01*
X237Y7297D01*
X233Y7303D01*
X227Y7310D01*
X220Y7313D01*
X193Y7330D01*
X170Y7310D01*
G37*
%LPD*%
G36*
X7303Y7310D02*
X7300Y7307D01*
X7297Y7300D01*
X7293Y7290D01*
X7290Y7283D01*
X7287Y7273D01*
Y7263D01*
X7283Y7253D01*
Y7243D01*
Y7200D01*
X7333D01*
X7383D01*
Y7247D01*
Y7257D01*
X7380Y7267D01*
Y7277D01*
X7373Y7287D01*
X7370Y7297D01*
X7367Y7303D01*
X7360Y7310D01*
X7353Y7313D01*
X7327Y7330D01*
X7303Y7310D01*
G37*
%LPD*%
G36*
X417Y4560D02*
X413Y4023D01*
Y3500D01*
Y3007D01*
Y2550D01*
Y2147D01*
Y1810D01*
Y1550D01*
Y1383D01*
Y1263D01*
Y1143D01*
Y1027D01*
Y913D01*
Y807D01*
Y713D01*
Y633D01*
Y573D01*
X417Y333D01*
X3760Y340D01*
X7100Y350D01*
X7110Y3760D01*
X7117Y7167D01*
X3767D01*
X417D01*
Y4560D01*
G37*
%LPC*%
G36*
X1907Y6883D02*
X1910Y6867D01*
Y6847D01*
Y6830D01*
X1913Y6813D01*
Y6797D01*
X1917Y6780D01*
Y6770D01*
Y6760D01*
Y6750D01*
Y6737D01*
Y6723D01*
Y6710D01*
Y6693D01*
X1913Y6680D01*
Y6663D01*
X1910Y6650D01*
X1900Y6583D01*
X1977Y6590D01*
X2050Y6600D01*
Y6383D01*
Y6167D01*
X1977Y6177D01*
X1900Y6183D01*
Y6133D01*
Y6083D01*
X1977Y6090D01*
X2050Y6100D01*
Y5883D01*
Y5667D01*
X1977Y5677D01*
X1900Y5683D01*
X1897Y5510D01*
Y5333D01*
X2407D01*
X2917D01*
Y5183D01*
Y5033D01*
X2890D01*
X2860D01*
X2863Y5100D01*
X2867Y5170D01*
X1810Y5167D01*
X750Y5163D01*
Y6067D01*
Y6967D01*
X1327D01*
X1900D01*
X1907Y6883D01*
G37*
%LPC*%
G36*
X2157Y6117D02*
X2147Y5533D01*
X2063D01*
X1980D01*
X2000Y5567D01*
X2007Y5573D01*
X2013Y5580D01*
X2020Y5587D01*
X2030Y5590D01*
X2037Y5593D01*
X2050Y5597D01*
X2060Y5600D01*
X2070D01*
X2117D01*
Y6130D01*
Y6663D01*
X2043Y6677D01*
X1967Y6690D01*
X2067Y6697D01*
X2167Y6700D01*
X2157Y6117D01*
G37*
%LPC*%
G36*
X5300Y5383D02*
Y4800D01*
X5277D01*
X5250D01*
Y5383D01*
Y5967D01*
X5277D01*
X5300D01*
Y5383D01*
G37*
%LPC*%
G36*
X2527Y5003D02*
X2543Y4940D01*
X2683Y4957D01*
X2827Y4977D01*
X2803Y4940D01*
X2780Y4900D01*
X2453D01*
X2123D01*
X2110Y4983D01*
X2093Y5067D01*
X2300D01*
X2510D01*
X2527Y5003D01*
G37*
%LPC*%
G36*
X2777Y5043D02*
X2763Y5040D01*
X2747D01*
X2733Y5037D01*
X2717D01*
X2700D01*
X2687Y5040D01*
X2670D01*
X2660Y5043D01*
X2600Y5060D01*
X2717D01*
X2833D01*
X2777Y5043D01*
G37*
%LPC*%
G36*
X1317Y7067D02*
X667Y7050D01*
X650Y6583D01*
X647Y6437D01*
X643Y6193D01*
Y5870D01*
Y5477D01*
Y5027D01*
Y4533D01*
X647Y4010D01*
X650Y3467D01*
X667Y817D01*
X700D01*
X733D01*
X743Y2943D01*
X750Y5067D01*
X1397D01*
X2043D01*
X2040Y4760D01*
Y4450D01*
X2070D01*
X2100D01*
X2110Y4643D01*
X2120Y4833D01*
X2503D01*
X2887D01*
X2867Y4900D01*
X2847Y4967D01*
X2913D01*
X2983D01*
Y5250D01*
Y5533D01*
X2917D01*
X2903D01*
X2890D01*
X2877D01*
X2863D01*
X2850D01*
X2840D01*
X2830D01*
X2827D01*
X2820D01*
X2817Y5530D01*
X2810Y5527D01*
X2807Y5520D01*
X2803Y5513D01*
Y5507D01*
X2800Y5500D01*
Y5493D01*
Y5450D01*
X2860Y5460D01*
X2917Y5470D01*
Y5433D01*
Y5400D01*
X2450D01*
X1983D01*
Y5437D01*
Y5473D01*
X2173Y5460D01*
X2367Y5450D01*
X2377Y5513D01*
X2390Y5577D01*
X2320Y5557D01*
X2250Y5540D01*
Y6120D01*
Y6700D01*
X2997D01*
X3747D01*
X3767Y6730D01*
X3783Y6763D01*
X3750Y6783D01*
X3717Y6803D01*
X2857Y6800D01*
X2000Y6797D01*
Y6883D01*
Y6967D01*
X4460D01*
X6917D01*
Y6200D01*
Y5433D01*
X6847D01*
X6780D01*
X6790Y5377D01*
X6803Y5317D01*
X6860Y5327D01*
X6917Y5337D01*
Y5000D01*
Y4667D01*
X6143D01*
X5367D01*
Y5000D01*
Y5333D01*
X5443D01*
X5523D01*
X5507Y5377D01*
X5493Y5417D01*
X5440Y5413D01*
X5387Y5407D01*
X5377Y5690D01*
X5367Y5970D01*
X5683Y5963D01*
X6000Y5957D01*
Y6003D01*
Y6047D01*
X5683Y6037D01*
X5620D01*
X5560Y6033D01*
X5503Y6030D01*
X5453Y6027D01*
X5413Y6023D01*
X5380Y6020D01*
X5360D01*
X5350Y6017D01*
X5347D01*
X5343D01*
X5340Y6020D01*
X5337Y6027D01*
X5333Y6033D01*
Y6043D01*
X5330Y6053D01*
Y6067D01*
Y6130D01*
X5360Y6110D01*
X5393Y6090D01*
X5377Y6213D01*
X5363Y6333D01*
X5887D01*
X6413D01*
Y5997D01*
Y5663D01*
X5973Y5670D01*
X5533Y5677D01*
Y5630D01*
Y5583D01*
X5577Y5587D01*
X5593D01*
X5627Y5590D01*
X5673D01*
X5730D01*
X5800D01*
X5877Y5593D01*
X5960D01*
X6047D01*
X6477Y5600D01*
X6490Y5800D01*
X6493Y5843D01*
Y5893D01*
X6497Y5947D01*
Y6000D01*
Y6053D01*
X6493Y6107D01*
Y6157D01*
X6490Y6200D01*
X6477Y6400D01*
X5880D01*
X5287D01*
X5273Y6210D01*
X5263Y6017D01*
X5257Y6390D01*
X5250Y6763D01*
X5223Y6780D01*
X5207Y6783D01*
X5170Y6787D01*
X5120Y6790D01*
X5053Y6793D01*
X4973Y6797D01*
X4883Y6800D01*
X4783D01*
X4680Y6803D01*
X4167Y6807D01*
X4157Y6753D01*
X4147Y6700D01*
X4663D01*
X5183D01*
Y5700D01*
Y4700D01*
X5233D01*
X5283D01*
Y4633D01*
Y4567D01*
X6133D01*
X6983D01*
X7000Y4643D01*
X7017Y4717D01*
X6993Y5893D01*
X6967Y7067D01*
X7010D01*
X7050D01*
Y5683D01*
Y4300D01*
X6017D01*
X4983D01*
Y5233D01*
Y6167D01*
X4777Y6170D01*
X4733D01*
X4690D01*
X4650Y6173D01*
X4613Y6170D01*
X4583D01*
X4553D01*
X4533D01*
X4520Y6167D01*
X4473Y6160D01*
X4493Y6360D01*
X4513Y6557D01*
X4333Y6553D01*
X4150D01*
Y6493D01*
Y6433D01*
X4283Y6453D01*
X4417Y6477D01*
X4413Y6297D01*
X4410Y6117D01*
X4393Y6160D01*
X4377Y6200D01*
X4330D01*
X4280D01*
X4290Y5960D01*
X4300Y5717D01*
X4497Y5707D01*
X4690Y5697D01*
X4680Y5083D01*
X4667Y4467D01*
X4700D01*
X4733D01*
Y5127D01*
Y5783D01*
X4540Y5793D01*
X4347Y5803D01*
X4357Y5943D01*
X4367Y6083D01*
X4410Y6073D01*
X4420D01*
X4433D01*
X4447Y6077D01*
X4460Y6080D01*
X4477Y6083D01*
X4493Y6090D01*
X4507Y6097D01*
X4523Y6103D01*
X4590Y6140D01*
X4573Y6110D01*
X4553Y6077D01*
X4733Y6093D01*
X4917Y6107D01*
Y5203D01*
Y4300D01*
X4767D01*
X4617D01*
Y4983D01*
Y5667D01*
X4113D01*
X3613D01*
X3620Y5893D01*
X3627Y6123D01*
X3603Y6160D01*
X3580Y6197D01*
X3533Y6177D01*
X3483Y6160D01*
Y6317D01*
Y6477D01*
X3617Y6453D01*
X3750Y6433D01*
Y6467D01*
Y6473D01*
Y6480D01*
Y6490D01*
X3753Y6497D01*
Y6503D01*
X3757Y6513D01*
Y6520D01*
X3760Y6523D01*
X3767Y6547D01*
X3580Y6553D01*
X3390Y6560D01*
X3403Y6337D01*
X3417Y6117D01*
X3397Y6160D01*
X3377Y6200D01*
X3330D01*
X3283D01*
Y5833D01*
Y5467D01*
X3850D01*
X4417D01*
Y4947D01*
Y4427D01*
X4457Y4443D01*
X4500Y4457D01*
X4497Y4493D01*
Y4513D01*
X4493Y4550D01*
Y4603D01*
Y4670D01*
Y4747D01*
X4490Y4837D01*
Y4933D01*
Y5033D01*
X4483Y5533D01*
X3917D01*
X3347D01*
X3357Y5810D01*
X3367Y6083D01*
X3410Y6073D01*
X3420D01*
X3430D01*
X3443D01*
X3457Y6077D01*
X3470Y6080D01*
X3483Y6087D01*
X3497Y6090D01*
X3510Y6097D01*
X3567Y6127D01*
X3557Y5863D01*
X3543Y5600D01*
X4047D01*
X4550D01*
Y4950D01*
Y4300D01*
X4083D01*
X3617D01*
Y4427D01*
Y4557D01*
X3433Y4540D01*
X3250Y4527D01*
Y4663D01*
Y4800D01*
X3200D01*
X3150D01*
Y4633D01*
Y4467D01*
X3330D01*
X3513D01*
X3523Y4343D01*
X3533Y4217D01*
X3840Y4207D01*
X4150Y4197D01*
X4157Y3643D01*
X4167Y3090D01*
X4210Y3073D01*
X4250Y3060D01*
Y3630D01*
Y4200D01*
X5657D01*
X7060D01*
X7040Y3493D01*
X7033Y3330D01*
X7030Y3127D01*
X7027Y2900D01*
X7023Y2650D01*
X7020Y2390D01*
Y2123D01*
X7017Y1863D01*
Y1610D01*
Y433D01*
X5817D01*
X4617D01*
Y747D01*
Y1063D01*
X4740Y1073D01*
X4863Y1083D01*
X4883Y1150D01*
X4900Y1217D01*
X4943D01*
X4983D01*
X4977Y1250D01*
X4967Y1283D01*
X4917D01*
X4867D01*
X4863Y1467D01*
X4860Y1650D01*
X4740Y1660D01*
X4617Y1670D01*
Y2000D01*
Y2330D01*
X4740Y2340D01*
X4863Y2350D01*
X4867Y2440D01*
Y2533D01*
X4833Y2540D01*
X4800Y2550D01*
X4790Y2477D01*
X4780Y2400D01*
X4663D01*
X4550D01*
Y2000D01*
Y1600D01*
X4667D01*
X4783D01*
Y1387D01*
Y1170D01*
X4663Y1160D01*
X4540Y1150D01*
X4547Y793D01*
X4553Y433D01*
X3837D01*
X3117D01*
Y1250D01*
Y2067D01*
X3213D01*
X3307D01*
X3293Y1950D01*
X3280Y1830D01*
X3573Y1840D01*
X3867Y1850D01*
Y2457D01*
Y3060D01*
X3893Y3087D01*
X3917Y3110D01*
Y2447D01*
Y1783D01*
X3600Y1793D01*
X3283Y1803D01*
Y1753D01*
Y1700D01*
X3633D01*
X3983D01*
Y2403D01*
Y3103D01*
X4050Y3083D01*
X4117Y3063D01*
Y3110D01*
Y3157D01*
X3950D01*
X3783D01*
Y2530D01*
Y1907D01*
X3553Y1893D01*
X3323Y1883D01*
X3340Y1923D01*
X3357Y1967D01*
X3553D01*
X3750D01*
Y2650D01*
Y3333D01*
X3867D01*
X3983D01*
Y3400D01*
Y3470D01*
X4043Y3460D01*
X4100Y3450D01*
X4110Y3677D01*
X4120Y3900D01*
X4000D01*
X3877D01*
X3860Y3967D01*
X3843Y4033D01*
X3480D01*
X3117D01*
Y4433D01*
Y4833D01*
X3187D01*
X3257D01*
X3240Y4900D01*
X3223Y4967D01*
X3317D01*
X3413D01*
X3423Y4843D01*
X3433Y4717D01*
X3743Y4707D01*
X4053Y4697D01*
X4043Y4577D01*
X4033Y4457D01*
X4077Y4443D01*
X4117Y4427D01*
Y4747D01*
Y5067D01*
X4063D01*
X4010D01*
X4033Y4933D01*
X4057Y4800D01*
X3770D01*
X3483D01*
Y4917D01*
Y5033D01*
X3347D01*
X3213D01*
X3233Y5067D01*
X3253Y5100D01*
X3400D01*
X3550D01*
X3540Y5043D01*
X3533Y4983D01*
X3567Y4967D01*
X3600Y4950D01*
X3610Y5060D01*
X3620Y5167D01*
X3437D01*
X3250D01*
Y5250D01*
Y5333D01*
X3820D01*
X4390D01*
X4377Y5377D01*
X4360Y5417D01*
X4323Y5413D01*
X4303D01*
X4263Y5410D01*
X4203D01*
X4127D01*
X4040D01*
X3937Y5407D01*
X3830D01*
X3713D01*
X3143Y5400D01*
X3157Y5163D01*
X3173Y4923D01*
X3110Y4907D01*
X3050Y4893D01*
Y4430D01*
Y3967D01*
X3417D01*
X3783D01*
Y3900D01*
Y3833D01*
X3917D01*
X4050D01*
Y3680D01*
Y3530D01*
X3983Y3550D01*
X3917Y3570D01*
Y3487D01*
Y3400D01*
X3783D01*
X3650D01*
Y2717D01*
Y2033D01*
X3497D01*
X3347D01*
X3367Y2100D01*
X3387Y2167D01*
X3220D01*
X3050D01*
Y1300D01*
Y433D01*
X2287D01*
X1527D01*
X1507Y583D01*
X1483Y733D01*
X1507Y837D01*
X1527Y940D01*
X1387Y917D01*
X1250Y893D01*
Y2547D01*
Y4200D01*
X1927Y4207D01*
X2600Y4217D01*
X2610Y4393D01*
X2620Y4567D01*
X2567D01*
X2510D01*
X2533Y4433D01*
X2557Y4300D01*
X1860Y4293D01*
X1167Y4283D01*
Y2567D01*
Y850D01*
X1293Y840D01*
X1417Y830D01*
Y633D01*
Y437D01*
X977Y427D01*
X887Y423D01*
X803D01*
X723D01*
X657D01*
X600D01*
X553D01*
X523D01*
X510Y427D01*
X487Y433D01*
X483Y3743D01*
Y7053D01*
X503Y7077D01*
X527Y7100D01*
X1247Y7093D01*
X1967Y7087D01*
X1317Y7067D01*
G37*
%LPD*%
G36*
X4807Y5677D02*
X4800Y5670D01*
X4797Y5657D01*
X4793Y5637D01*
X4790Y5613D01*
X4787Y5587D01*
Y5560D01*
X4783Y5527D01*
Y5493D01*
Y5333D01*
X4827D01*
X4873D01*
X4870Y5497D01*
X4867Y5530D01*
Y5563D01*
X4863Y5593D01*
X4860Y5620D01*
X4857Y5643D01*
X4853Y5660D01*
X4850Y5673D01*
X4847Y5680D01*
X4827Y5700D01*
X4807Y5677D01*
G37*
%LPD*%
G36*
X6283Y4997D02*
Y4927D01*
X6327Y4940D01*
X6333Y4947D01*
X6343Y4950D01*
X6350Y4960D01*
X6357Y4967D01*
X6363Y4977D01*
X6370Y4990D01*
X6373Y5000D01*
X6377Y5010D01*
X6387Y5067D01*
X6337D01*
X6283D01*
Y4997D01*
G37*
%LPD*%
G36*
X1383Y4750D02*
Y4700D01*
X1450D01*
X1517D01*
Y4750D01*
Y4800D01*
X1450D01*
X1383D01*
Y4750D01*
G37*
%LPD*%
G36*
X2783Y4347D02*
Y3893D01*
X2477Y3903D01*
X2167Y3913D01*
X2157Y3860D01*
X2147Y3803D01*
X2040Y3793D01*
X1933Y3783D01*
X1917Y3633D01*
X1900Y3483D01*
X1873Y3527D01*
X1847Y3567D01*
X1813Y3550D01*
X1807Y3543D01*
X1803Y3537D01*
X1797Y3527D01*
X1793Y3517D01*
X1790Y3503D01*
X1787Y3490D01*
X1783Y3477D01*
Y3463D01*
Y3400D01*
X1667D01*
X1550D01*
Y2550D01*
Y1700D01*
X2083D01*
X2617D01*
Y1750D01*
Y1800D01*
X2117D01*
X1617D01*
Y2563D01*
Y3330D01*
X1743Y3340D01*
X1867Y3350D01*
X1857Y3403D01*
X1850Y3457D01*
X1950D01*
X2053D01*
X2043Y3303D01*
X2033Y3150D01*
X1910Y3157D01*
X1783Y3167D01*
Y2567D01*
Y1967D01*
X2167D01*
X2550D01*
Y1933D01*
Y1900D01*
X2150D01*
X1750D01*
Y2533D01*
Y3167D01*
X1700D01*
X1650D01*
X1657Y2510D01*
X1667Y1850D01*
X2143Y1840D01*
X2620Y1830D01*
X2607Y1950D01*
X2593Y2067D01*
X2620Y2087D01*
X2650Y2103D01*
Y1387D01*
Y667D01*
X2317D01*
X1983D01*
Y1100D01*
Y1533D01*
X1733D01*
X1483D01*
Y2503D01*
Y3473D01*
X1610Y3460D01*
X1733Y3450D01*
X1743Y3693D01*
X1753Y3933D01*
X1700D01*
X1650D01*
Y3733D01*
Y3533D01*
X1533D01*
X1417D01*
Y2500D01*
Y1467D01*
X1667D01*
X1913D01*
X1923Y1027D01*
X1933Y583D01*
X2333D01*
X2733D01*
X2743Y1377D01*
X2750Y2167D01*
X2633D01*
X2513D01*
X2533Y2100D01*
X2553Y2033D01*
X2207D01*
X1860D01*
X1873Y2110D01*
Y2133D01*
X1877Y2173D01*
Y2230D01*
X1873Y2300D01*
Y2380D01*
X1870Y2467D01*
X1863Y2560D01*
X1860Y2657D01*
X1833Y3127D01*
X1890Y3097D01*
X1947Y3067D01*
X1997Y3087D01*
X2050Y3107D01*
Y2720D01*
Y2333D01*
X2337D01*
X2623D01*
X2607Y2400D01*
X2590Y2467D01*
X2687D01*
X2783D01*
Y1500D01*
Y533D01*
X2267D01*
X1750D01*
Y733D01*
Y933D01*
X1700D01*
X1650D01*
Y700D01*
Y467D01*
X2260Y473D01*
X2867Y483D01*
Y1500D01*
Y2517D01*
X2730Y2527D01*
X2590Y2537D01*
X2607Y2603D01*
X2623Y2667D01*
X2573D01*
X2520D01*
X2533Y2533D01*
X2547Y2400D01*
X2333D01*
X2117D01*
X2110Y2973D01*
X2100Y3550D01*
X2043Y3540D01*
X1983Y3530D01*
Y3617D01*
Y3700D01*
X2103D01*
X2223D01*
X2240Y3767D01*
X2257Y3833D01*
X2553D01*
X2850D01*
Y4243D01*
Y4327D01*
X2853Y4407D01*
Y4483D01*
X2857Y4553D01*
X2860Y4613D01*
X2863Y4663D01*
X2867Y4700D01*
X2870Y4727D01*
X2890Y4800D01*
X2837D01*
X2783D01*
Y4347D01*
G37*
%LPD*%
G36*
X4413Y4043D02*
Y4027D01*
Y3990D01*
Y3933D01*
Y3860D01*
Y3773D01*
X4417Y3677D01*
Y3570D01*
Y3460D01*
X4420Y2900D01*
X4237D01*
X4050D01*
Y2150D01*
Y1400D01*
X3700D01*
X3350D01*
Y1437D01*
Y1473D01*
X3673Y1463D01*
X4000Y1453D01*
X4007Y1560D01*
X4017Y1667D01*
X3653D01*
X3293D01*
Y1500D01*
Y1333D01*
X3703D01*
X4117D01*
Y2083D01*
Y2833D01*
X4300D01*
X4483D01*
X4490Y3400D01*
Y3513D01*
Y3623D01*
X4493Y3723D01*
Y3810D01*
Y3887D01*
Y3947D01*
X4497Y3987D01*
Y4007D01*
X4500Y4043D01*
X4460Y4060D01*
X4417Y4073D01*
X4413Y4043D01*
G37*
%LPC*%
G36*
X3900Y1567D02*
X3920Y1533D01*
X3633D01*
X3347D01*
X3367Y1567D01*
X3387Y1600D01*
X3633D01*
X3880D01*
X3900Y1567D01*
G37*
%LPD*%
G36*
X4650Y3993D02*
X4653Y3967D01*
Y3920D01*
Y3853D01*
Y3777D01*
Y3683D01*
Y3583D01*
Y3473D01*
Y3360D01*
X4650Y2803D01*
X4410Y2793D01*
X4167Y2783D01*
X4157Y2040D01*
X4150Y1300D01*
X3717D01*
X3283D01*
Y1250D01*
Y1197D01*
X3760Y1207D01*
X4233Y1217D01*
X4243Y1957D01*
X4250Y2697D01*
X4493Y2707D01*
X4733Y2717D01*
X4743Y3393D01*
X4750Y4067D01*
X4697D01*
X4647D01*
X4650Y3993D01*
G37*
%LPD*%
G36*
X5283Y3800D02*
Y3567D01*
X5337D01*
X5387D01*
X5380Y3627D01*
Y3640D01*
Y3660D01*
Y3683D01*
Y3707D01*
Y3737D01*
Y3767D01*
Y3797D01*
Y3827D01*
X5383Y3967D01*
X5583D01*
X5780D01*
X5790Y3593D01*
X5800Y3217D01*
X6043Y3207D01*
X6283Y3197D01*
Y2550D01*
Y1900D01*
X6017D01*
X5750D01*
Y2300D01*
Y2700D01*
X5780D01*
X5810D01*
X5793Y2637D01*
X5777Y2573D01*
X5940Y2583D01*
X6100Y2593D01*
X6110Y2880D01*
X6120Y3167D01*
X5863D01*
X5610D01*
X5620Y3427D01*
X5633Y3683D01*
X5583D01*
X5533D01*
X5537Y3627D01*
Y3610D01*
Y3583D01*
X5540Y3553D01*
Y3517D01*
Y3473D01*
X5543Y3430D01*
Y3380D01*
Y3333D01*
X5550Y3100D01*
X5800D01*
X6050D01*
Y2883D01*
Y2667D01*
X5957D01*
X5863D01*
X5873Y2803D01*
X5883Y2940D01*
X5810Y2920D01*
X5790Y2917D01*
X5767Y2913D01*
X5740Y2910D01*
X5710Y2907D01*
X5677Y2903D01*
X5643D01*
X5610Y2900D01*
X5577D01*
X5417D01*
Y2600D01*
Y2303D01*
X5177Y2293D01*
X4933Y2283D01*
X4923Y2170D01*
X4913Y2060D01*
X4957Y2077D01*
X5000Y2090D01*
X4997Y2147D01*
X4990Y2200D01*
X5237D01*
X5483D01*
Y2517D01*
Y2833D01*
X5660Y2830D01*
X5833Y2823D01*
X5760Y2810D01*
X5683Y2797D01*
Y2670D01*
Y2637D01*
X5680Y2593D01*
Y2537D01*
X5677Y2477D01*
X5673Y2407D01*
X5670Y2337D01*
X5667Y2260D01*
X5660Y2187D01*
X5640Y1830D01*
X6003Y1840D01*
X6367Y1850D01*
Y2567D01*
Y3283D01*
X6127Y3293D01*
X5887Y3303D01*
X5877Y3660D01*
X5867Y4017D01*
X5577Y4027D01*
X5283Y4037D01*
Y3800D01*
G37*
%LPD*%
G36*
X6307Y4010D02*
X6283Y3990D01*
Y3777D01*
Y3567D01*
X6333D01*
X6383D01*
Y3767D01*
Y3967D01*
X6583D01*
X6783D01*
Y2317D01*
Y667D01*
X6267D01*
X5750D01*
Y1000D01*
Y1333D01*
X5780D01*
X5810D01*
X5793Y1267D01*
X5777Y1200D01*
X6197D01*
X6617D01*
X6623Y2383D01*
Y2623D01*
Y2847D01*
X6627Y3053D01*
Y3237D01*
Y3390D01*
X6630Y3510D01*
Y3590D01*
Y3627D01*
X6633Y3683D01*
X6590D01*
X6543D01*
X6547Y2493D01*
X6553Y1300D01*
X6203D01*
X5853D01*
X5873Y1357D01*
X5893Y1410D01*
X5863Y1390D01*
X5830Y1370D01*
Y1433D01*
Y1497D01*
X5860Y1477D01*
X5893Y1457D01*
X5880Y1497D01*
X5877Y1507D01*
X5870Y1513D01*
X5867Y1520D01*
X5863Y1527D01*
X5857Y1530D01*
X5850Y1533D01*
X5847Y1537D01*
X5840D01*
X5833D01*
X5817Y1533D01*
X5793D01*
X5767D01*
X5733D01*
X5697D01*
X5657D01*
X5617D01*
X5417D01*
Y1283D01*
Y1033D01*
X5167D01*
X4917D01*
Y933D01*
Y833D01*
X4967D01*
X5017D01*
Y870D01*
Y903D01*
X4983Y883D01*
X4950Y863D01*
X4970Y913D01*
X4990Y967D01*
X5237D01*
X5483D01*
Y1217D01*
Y1467D01*
X5633D01*
X5783D01*
Y1433D01*
Y1400D01*
X5737D01*
X5690D01*
X5667Y1160D01*
X5663Y1107D01*
X5660Y1050D01*
X5657Y993D01*
X5653Y940D01*
Y883D01*
Y833D01*
Y790D01*
X5657Y750D01*
X5667Y583D01*
X6267D01*
X6867D01*
X6877Y2310D01*
X6883Y4033D01*
X6607D01*
X6327D01*
X6307Y4010D01*
G37*
%LPD*%
G36*
X3283Y3733D02*
Y3537D01*
X2977Y3527D01*
X2667Y3517D01*
X2657Y3043D01*
X2647Y2567D01*
X2700D01*
X2750D01*
Y3017D01*
Y3470D01*
X3310Y3463D01*
X3867Y3460D01*
Y3503D01*
Y3543D01*
X3603Y3537D01*
X3340Y3530D01*
X3360Y3730D01*
X3383Y3933D01*
X3333D01*
X3283D01*
Y3733D01*
G37*
%LPD*%
G36*
X3170Y3177D02*
X3167Y3173D01*
X3163Y3167D01*
X3160Y3157D01*
X3157Y3150D01*
X3153Y3140D01*
Y3130D01*
X3150Y3120D01*
Y3110D01*
Y3067D01*
X3200D01*
X3250D01*
Y3113D01*
Y3123D01*
X3247Y3133D01*
Y3143D01*
X3240Y3153D01*
X3237Y3163D01*
X3233Y3170D01*
X3227Y3177D01*
X3220Y3180D01*
X3193Y3197D01*
X3170Y3177D01*
G37*
%LPD*%
G36*
X3283Y2500D02*
Y2333D01*
X3333D01*
X3383D01*
Y2370D01*
Y2403D01*
X3343Y2380D01*
X3300Y2353D01*
X3340Y2403D01*
X3380Y2453D01*
X3377Y2560D01*
X3373Y2667D01*
X3327D01*
X3283D01*
Y2500D01*
G37*
%LPD*%
G36*
X4543Y2543D02*
X4417Y2530D01*
Y2080D01*
Y1990D01*
Y1907D01*
Y1827D01*
Y1757D01*
Y1700D01*
Y1653D01*
Y1623D01*
Y1610D01*
Y1603D01*
X4420Y1600D01*
X4423Y1593D01*
X4427Y1590D01*
X4433Y1587D01*
X4440D01*
X4447Y1583D01*
X4453D01*
X4490D01*
X4487Y2030D01*
X4480Y2477D01*
X4613Y2453D01*
X4750Y2433D01*
Y2500D01*
Y2567D01*
X4710Y2560D01*
X4697D01*
X4683Y2557D01*
X4663D01*
X4643Y2553D01*
X4620Y2550D01*
X4593Y2547D01*
X4567D01*
X4543Y2543D01*
G37*
%LPD*%
G36*
X4930Y2520D02*
X4910Y2463D01*
X4930Y2443D01*
X4950Y2420D01*
X4990Y2460D01*
X5030Y2500D01*
X4990Y2540D01*
X4953Y2577D01*
X4930Y2520D01*
G37*
%LPD*%
G36*
X2283Y2250D02*
Y2200D01*
X2450D01*
X2617D01*
Y2250D01*
Y2300D01*
X2450D01*
X2283D01*
Y2250D01*
G37*
%LPD*%
G36*
X3283Y2250D02*
Y2200D01*
X3450D01*
X3617D01*
Y2250D01*
Y2300D01*
X3450D01*
X3283D01*
Y2250D01*
G37*
%LPD*%
G36*
X4667Y2013D02*
X4670Y1983D01*
X4673Y1953D01*
Y1927D01*
X4677Y1903D01*
X4680Y1883D01*
X4683Y1867D01*
X4687Y1857D01*
X4690Y1850D01*
X4697Y1847D01*
X4713Y1843D01*
X4740D01*
X4777Y1840D01*
X4817Y1837D01*
X4863Y1833D01*
X4913D01*
X4967Y1830D01*
X5233Y1823D01*
X5243Y1873D01*
X5253Y1923D01*
X5000Y1907D01*
X4750Y1890D01*
Y2030D01*
Y2167D01*
X4703D01*
X4657D01*
X4667Y2013D01*
G37*
%LPD*%
G36*
X4783Y2113D02*
Y2060D01*
X4823Y2073D01*
X4830Y2077D01*
X4840Y2083D01*
X4847Y2090D01*
X4853Y2097D01*
X4860Y2103D01*
X4867Y2110D01*
X4873Y2120D01*
X4877Y2127D01*
X4890Y2167D01*
X4837D01*
X4783D01*
Y2113D01*
G37*
%LPD*%
G36*
X2283Y1620D02*
Y1570D01*
X2427Y1557D01*
X2567Y1543D01*
X2430Y1540D01*
X2293Y1533D01*
Y1433D01*
Y1333D01*
X2453D01*
X2617D01*
X2613Y1500D01*
X2607Y1667D01*
X2447D01*
X2283D01*
Y1620D01*
G37*
%LPC*%
G36*
X2550Y1433D02*
Y1400D01*
X2450D01*
X2350D01*
Y1433D01*
Y1467D01*
X2450D01*
X2550D01*
Y1433D01*
G37*
%LPD*%
G36*
X4417Y1487D02*
Y1440D01*
X4547Y1457D01*
X4677Y1473D01*
X4660Y1337D01*
X4640Y1200D01*
X4697D01*
X4750D01*
Y1367D01*
Y1533D01*
X4583D01*
X4417D01*
Y1487D01*
G37*
%LPD*%
G36*
X2283Y1250D02*
Y1200D01*
X2450D01*
X2617D01*
Y1250D01*
Y1300D01*
X2450D01*
X2283D01*
Y1250D01*
G37*
%LPD*%
G36*
X2283Y1123D02*
Y1080D01*
X2450D01*
X2617D01*
Y1123D01*
Y1167D01*
X2450D01*
X2283D01*
Y1123D01*
G37*
%LPD*%
G36*
X3293Y1003D02*
Y837D01*
X3430Y823D01*
X3567Y810D01*
X3427Y807D01*
X3283Y800D01*
Y750D01*
Y700D01*
X3447D01*
X3607D01*
X3613Y933D01*
X3617Y1167D01*
X3457D01*
X3293D01*
Y1003D01*
G37*
%LPC*%
G36*
X3510Y1043D02*
X3497Y1040D01*
X3480D01*
X3467Y1037D01*
X3450D01*
X3433D01*
X3420Y1040D01*
X3403D01*
X3393Y1043D01*
X3333Y1060D01*
X3450D01*
X3567D01*
X3510Y1043D01*
G37*
%LPC*%
G36*
X3517Y933D02*
Y900D01*
X3433D01*
X3350D01*
Y933D01*
Y967D01*
X3433D01*
X3517D01*
Y933D01*
G37*
%LPD*%
G36*
X4027Y1127D02*
X4040Y1083D01*
X4093D01*
X4103D01*
X4113Y1080D01*
X4127D01*
X4137Y1077D01*
X4147Y1073D01*
X4157Y1067D01*
X4163Y1063D01*
X4170Y1057D01*
X4193Y1033D01*
X4110D01*
X4027D01*
Y933D01*
Y833D01*
X4113Y830D01*
X4200Y827D01*
X4123Y807D01*
X4107Y800D01*
X4093Y793D01*
X4080Y787D01*
X4067Y780D01*
X4057Y773D01*
X4047Y763D01*
X4043Y757D01*
X4040Y750D01*
X4033Y717D01*
X4137Y707D01*
X4243Y697D01*
Y930D01*
Y1167D01*
X4127D01*
X4010D01*
X4027Y1127D01*
G37*
%LPC*%
G36*
X4183Y953D02*
Y950D01*
X4180Y943D01*
X4177Y940D01*
X4173Y937D01*
X4170Y930D01*
X4163Y927D01*
X4157Y920D01*
X4150Y917D01*
X4117Y897D01*
Y930D01*
Y940D01*
X4120Y947D01*
X4123Y950D01*
X4127Y957D01*
X4130Y960D01*
X4137Y963D01*
X4143Y967D01*
X4150D01*
X4157D01*
X4163D01*
X4170Y963D01*
X4173D01*
X4177Y960D01*
X4180Y957D01*
X4183Y953D01*
D01*
G37*
%LPD*%
G36*
X2293Y933D02*
Y833D01*
X2457D01*
X2617D01*
Y933D01*
Y1033D01*
X2457D01*
X2293D01*
Y933D01*
G37*
%LPC*%
G36*
X2550Y933D02*
Y900D01*
X2450D01*
X2350D01*
Y933D01*
Y967D01*
X2450D01*
X2550D01*
Y933D01*
G37*
%LPD*%
G36*
X4663Y890D02*
X4660Y877D01*
X4657Y860D01*
Y840D01*
X4653Y817D01*
Y793D01*
Y767D01*
Y740D01*
X4657Y713D01*
X4667Y583D01*
X4960Y577D01*
X5250Y573D01*
Y620D01*
Y667D01*
X5000D01*
X4750D01*
Y780D01*
Y897D01*
X4717Y917D01*
X4683Y937D01*
X4663Y890D01*
G37*
%LPD*%
G36*
X4790Y887D02*
X4800Y830D01*
X4833D01*
X4850Y837D01*
X4860Y847D01*
X4867Y857D01*
Y873D01*
X4860Y890D01*
X4853Y903D01*
X4840Y917D01*
X4823Y927D01*
X4777Y940D01*
X4790Y887D01*
G37*
%LPD*%
G36*
X2283Y750D02*
Y700D01*
X2450D01*
X2617D01*
Y750D01*
Y800D01*
X2450D01*
X2283D01*
Y750D01*
G37*
%LPD*%
G36*
X150Y250D02*
Y200D01*
X200D01*
X250D01*
Y250D01*
Y300D01*
X200D01*
X150D01*
Y250D01*
G37*
%LPD*%
G36*
X7283Y250D02*
Y200D01*
X7333D01*
X7383D01*
Y250D01*
Y300D01*
X7333D01*
X7283D01*
Y250D01*
G37*
D02M02*
